<?xml version="1.0" encoding="UTF-8"?>
<svg xmlns="http://www.w3.org/2000/svg" xmlns:xlink="http://www.w3.org/1999/xlink" width="419.25pt" height="297.75pt" viewBox="0 0 419.25 297.75" version="1.2">
<defs>
<clipPath id="clip1">
  <path d="M 38 0.140625 L 202 0.140625 L 202 164 L 38 164 Z M 38 0.140625 "/>
</clipPath>
<clipPath id="clip2">
  <path d="M 374 294 L 384.699219 294 L 384.699219 297.359375 L 374 297.359375 Z M 374 294 "/>
</clipPath>
<clipPath id="clip3">
  <path d="M 357 294 L 369 294 L 369 297.359375 L 357 297.359375 Z M 357 294 "/>
</clipPath>
<clipPath id="clip4">
  <path d="M 194 294 L 349 294 L 349 297.359375 L 194 297.359375 Z M 194 294 "/>
</clipPath>
<clipPath id="clip5">
  <path d="M 155 294 L 180 294 L 180 297.359375 L 155 297.359375 Z M 155 294 "/>
</clipPath>
</defs>
<g id="surface1">
<path style=" stroke:none;fill-rule:nonzero;fill:rgb(74.119568%,73.728943%,74.119568%);fill-opacity:1;" d="M 119.390625 294.003906 C 119.410156 294.003906 119.429688 294.003906 119.445312 294.003906 C 119.429688 294.003906 119.410156 294.003906 119.390625 294.003906 M 119.390625 294.003906 C 119.371094 294.003906 119.351562 294.003906 119.332031 294.003906 C 119.351562 294.003906 119.371094 294.003906 119.390625 294.003906 M 119.324219 294.003906 C 119.308594 294.003906 119.292969 294.003906 119.273438 294.003906 C 119.292969 294.003906 119.308594 294.003906 119.324219 294.003906 M 119.457031 294.003906 C 119.472656 294.003906 119.488281 294.003906 119.503906 294.003906 C 119.488281 294.003906 119.472656 294.003906 119.457031 294.003906 M 119.265625 294.003906 C 119.226562 294.003906 119.191406 294.003906 119.15625 294.003906 C 119.191406 294.003906 119.226562 294.003906 119.265625 294.003906 M 119.515625 294.003906 C 119.550781 294.003906 119.585938 294.003906 119.621094 294.003906 C 119.585938 294.003906 119.554688 294.003906 119.515625 294.003906 M 119.136719 294.003906 C 119.121094 294.003906 119.105469 294.003906 119.09375 294.003906 C 119.105469 294.003906 119.121094 294.003906 119.136719 294.003906 M 119.644531 294.003906 C 119.65625 294.003906 119.675781 294.003906 119.683594 294.003906 C 119.671875 294.003906 119.65625 294.003906 119.644531 294.003906 M 119.082031 294.003906 C 119.046875 294.003906 119.007812 294.003906 118.972656 294.003906 C 119.007812 294.003906 119.046875 294.003906 119.082031 294.003906 M 119.695312 294.003906 C 119.730469 294.003906 119.769531 294.003906 119.8125 294.003906 C 119.769531 294.003906 119.730469 294.003906 119.695312 294.003906 M 118.960938 294.003906 C 118.945312 294.003906 118.929688 294.003906 118.917969 294.003906 C 118.929688 294.003906 118.945312 294.003906 118.960938 294.003906 M 119.816406 294.003906 C 119.835938 294.003906 119.847656 294.003906 119.863281 294.003906 C 119.847656 294.003906 119.835938 294.003906 119.816406 294.003906 M 118.894531 294.003906 C 118.859375 294.003906 118.824219 294.003906 118.789062 294.003906 C 118.824219 294.003906 118.859375 294.003906 118.894531 294.003906 M 119.882812 294.003906 C 119.917969 294.003906 119.953125 294.003906 119.988281 294.003906 C 119.953125 294.003906 119.917969 294.003906 119.882812 294.003906 M 118.777344 294.003906 C 118.761719 294.003906 118.742188 294.003906 118.726562 294.003906 C 118.742188 294.003906 118.761719 294.003906 118.777344 294.003906 M 120 294.003906 C 120.019531 294.003906 120.035156 294.003906 120.054688 294.003906 C 120.035156 294.003906 120.019531 294.003906 120 294.003906 M 118.722656 294.003906 C 118.664062 294.003906 118.609375 294.003906 118.550781 294.003906 C 118.609375 294.003906 118.664062 294.003906 118.722656 294.003906 M 120.058594 294.003906 C 120.113281 294.003906 120.171875 294.003906 120.230469 294.003906 C 120.171875 294.003906 120.113281 294.003906 120.058594 294.003906 M 118.539062 294.003906 C 118.5 294.003906 118.46875 294.003906 118.425781 294.003906 C 118.464844 294.003906 118.503906 294.003906 118.539062 294.003906 M 120.242188 294.003906 C 120.277344 294.003906 120.316406 294.003906 120.351562 294.003906 C 120.316406 294.003906 120.277344 294.003906 120.242188 294.003906 M 118.417969 294.003906 C 87.988281 293.90625 63.484375 289.203125 63.484375 283.414062 C 63.484375 278.007812 84.855469 273.550781 112.460938 272.902344 L 112.460938 283.496094 C 94.714844 283.910156 79.550781 285.90625 70.976562 288.710938 C 80.496094 291.824219 98.136719 293.9375 118.417969 294.003906 M 120.363281 294.003906 C 140.644531 293.9375 158.28125 291.824219 167.800781 288.710938 C 159.226562 285.90625 144.066406 283.910156 126.316406 283.496094 L 126.316406 272.902344 C 153.921875 273.550781 175.296875 278.007812 175.296875 283.414062 C 175.296875 289.203125 150.792969 293.90625 120.363281 294.003906 "/>
<path style=" stroke:none;fill-rule:nonzero;fill:rgb(9.799194%,10.5896%,12.939453%);fill-opacity:1;" d="M 70.976562 288.710938 C 80.648438 291.875 98.699219 294.003906 119.390625 294.003906 C 140.082031 294.003906 158.132812 291.875 167.800781 288.710938 C 158.132812 285.542969 140.082031 283.414062 119.390625 283.414062 C 98.699219 283.414062 80.648438 285.542969 70.976562 288.710938 "/>
<path style=" stroke:none;fill-rule:nonzero;fill:rgb(82.749939%,82.348633%,82.348633%);fill-opacity:1;" d="M 113.835938 291.886719 L 124.945312 291.886719 L 124.945312 150.003906 L 113.835938 150.003906 Z M 113.835938 291.886719 "/>
<path style=" stroke:none;fill-rule:nonzero;fill:rgb(76.078796%,75.689697%,75.689697%);fill-opacity:1;" d="M 117.800781 290.511719 L 115.207031 290.511719 L 115.207031 160.824219 C 116.058594 161.050781 116.929688 161.199219 117.800781 161.265625 L 117.800781 290.511719 "/>
<path style=" stroke:none;fill-rule:nonzero;fill:rgb(100%,100%,100%);fill-opacity:1;" d="M 120.980469 291.886719 L 122.566406 291.886719 L 122.566406 150.003906 L 120.980469 150.003906 Z M 120.980469 291.886719 "/>
<path style=" stroke:none;fill-rule:nonzero;fill:rgb(9.799194%,10.5896%,12.939453%);fill-opacity:1;" d="M 124.945312 291.886719 L 124.945312 290.511719 L 115.207031 290.511719 L 115.207031 151.375 L 123.570312 151.375 L 123.570312 291.886719 L 124.945312 291.886719 L 124.945312 290.511719 L 124.945312 291.886719 L 126.316406 291.886719 L 126.316406 148.628906 L 112.460938 148.628906 L 112.460938 293.257812 L 126.316406 293.257812 L 126.316406 291.886719 L 124.945312 291.886719 "/>
<path style=" stroke:none;fill-rule:nonzero;fill:rgb(98.429871%,74.508667%,9.408569%);fill-opacity:1;" d="M 194.179688 71.816406 C 199.726562 77.367188 199.726562 86.355469 194.179688 91.902344 L 128.949219 157.152344 C 123.40625 162.695312 114.414062 162.695312 108.867188 157.152344 L 43.636719 91.902344 C 38.089844 86.355469 38.089844 77.367188 43.636719 71.816406 L 108.867188 6.570312 C 114.414062 1.023438 123.40625 1.023438 128.949219 6.570312 L 194.179688 71.816406 "/>
<path style=" stroke:none;fill-rule:nonzero;fill:rgb(98.429871%,74.508667%,9.408569%);fill-opacity:1;" d="M 126.316406 159.769531 L 126.316406 159.230469 C 127.253906 158.652344 128.136719 157.964844 128.949219 157.152344 L 135.011719 151.089844 L 135.488281 151.574219 L 129.910156 157.152344 C 128.828125 158.234375 127.613281 159.109375 126.316406 159.769531 "/>
<path style=" stroke:none;fill-rule:nonzero;fill:rgb(80.778503%,61.178589%,7.839966%);fill-opacity:1;" d="M 119.871094 161.308594 C 119.710938 161.308594 119.550781 161.304688 119.390625 161.300781 C 119.921875 161.285156 120.449219 161.238281 120.980469 161.160156 L 120.980469 161.265625 C 120.609375 161.296875 120.238281 161.308594 119.871094 161.308594 M 122.566406 161.054688 L 122.566406 160.835938 C 122.902344 160.746094 123.238281 160.640625 123.570312 160.527344 L 123.570312 160.824219 C 123.238281 160.914062 122.902344 160.988281 122.566406 161.054688 "/>
<path style=" stroke:none;fill-rule:nonzero;fill:rgb(98.429871%,74.508667%,9.408569%);fill-opacity:1;" d="M 120.980469 161.265625 L 120.980469 161.160156 C 121.511719 161.082031 122.039062 160.972656 122.566406 160.835938 L 122.566406 161.054688 C 122.039062 161.15625 121.507812 161.226562 120.980469 161.265625 "/>
<path style=" stroke:none;fill-rule:nonzero;fill:rgb(10.198975%,9.408569%,5.488586%);fill-opacity:1;" d="M 123.570312 160.824219 L 123.570312 160.527344 C 124.519531 160.199219 125.4375 159.765625 126.316406 159.230469 L 126.316406 159.769531 C 125.433594 160.21875 124.515625 160.570312 123.570312 160.824219 "/>
<path style=" stroke:none;fill-rule:nonzero;fill:rgb(98.429871%,74.508667%,9.408569%);fill-opacity:1;" d="M 135.011719 12.632812 L 128.949219 6.570312 C 126.300781 3.921875 122.863281 2.535156 119.390625 2.417969 C 119.550781 2.410156 119.710938 2.410156 119.871094 2.410156 C 123.503906 2.410156 127.136719 3.796875 129.910156 6.570312 L 135.488281 12.148438 L 135.011719 12.632812 "/>
<path style=" stroke:none;fill-rule:nonzero;fill:rgb(96.859741%,58.81958%,6.269836%);fill-opacity:1;" d="M 119.390625 161.300781 C 115.914062 161.183594 112.480469 159.800781 109.828125 157.152344 L 44.601562 91.902344 C 39.050781 86.355469 39.050781 77.367188 44.601562 71.816406 L 109.828125 6.570312 C 112.480469 3.921875 115.914062 2.535156 119.390625 2.417969 C 122.863281 2.535156 126.300781 3.921875 128.949219 6.570312 L 135.011719 12.632812 L 75.839844 71.816406 C 70.289062 77.367188 70.289062 86.355469 75.839844 91.902344 L 135.011719 151.089844 L 128.949219 157.152344 C 128.136719 157.964844 127.253906 158.652344 126.316406 159.230469 C 125.4375 159.765625 124.519531 160.199219 123.570312 160.527344 C 123.238281 160.640625 122.902344 160.746094 122.566406 160.835938 C 122.039062 160.972656 121.511719 161.082031 120.980469 161.160156 C 120.449219 161.238281 119.921875 161.285156 119.390625 161.300781 "/>
<g clip-path="url(#clip1)" clip-rule="nonzero">
<path style=" stroke:none;fill-rule:nonzero;fill:rgb(9.799194%,10.5896%,12.939453%);fill-opacity:1;" d="M 195.140625 71.816406 L 193.527344 73.4375 C 195.855469 75.769531 197.011719 78.800781 197.015625 81.863281 C 197.011719 84.917969 195.851562 87.953125 193.527344 90.289062 L 128.292969 155.53125 C 125.960938 157.863281 122.921875 159.023438 119.871094 159.023438 C 116.8125 159.023438 113.777344 157.863281 111.449219 155.53125 L 46.214844 90.285156 C 43.886719 87.953125 42.726562 84.917969 42.722656 81.863281 C 42.726562 78.800781 43.886719 75.769531 46.214844 73.4375 L 111.449219 8.1875 C 113.777344 5.859375 116.8125 4.699219 119.871094 4.699219 C 122.925781 4.699219 125.960938 5.859375 128.292969 8.1875 L 193.527344 73.4375 L 195.140625 71.816406 L 196.761719 70.199219 L 131.527344 4.953125 C 128.3125 1.734375 124.082031 0.121094 119.871094 0.125 C 115.65625 0.121094 111.425781 1.734375 108.210938 4.953125 L 42.980469 70.199219 C 39.765625 73.410156 38.148438 77.648438 38.148438 81.863281 C 38.148438 86.074219 39.765625 90.304688 42.980469 93.523438 L 108.210938 158.769531 C 111.421875 161.984375 115.65625 163.601562 119.871094 163.597656 C 124.082031 163.601562 128.3125 161.984375 131.527344 158.769531 L 196.761719 93.523438 C 199.972656 90.304688 201.59375 86.074219 201.589844 81.863281 C 201.59375 77.648438 199.972656 73.414062 196.761719 70.199219 L 195.140625 71.816406 "/>
</g>
<path style=" stroke:none;fill-rule:nonzero;fill:rgb(9.799194%,10.5896%,12.939453%);fill-opacity:1;" d="M 119.871094 17.398438 C 117.292969 17.398438 114.875 18.40625 113.050781 20.226562 L 58.253906 75.042969 C 54.492188 78.800781 54.492188 84.917969 58.253906 88.683594 L 113.050781 143.496094 C 114.875 145.316406 117.292969 146.320312 119.871094 146.320312 C 122.449219 146.320312 124.867188 145.316406 126.691406 143.496094 L 181.492188 88.683594 C 185.25 84.917969 185.25 78.800781 181.492188 75.042969 L 126.691406 20.226562 C 124.867188 18.40625 122.449219 17.398438 119.871094 17.398438 Z M 119.871094 150.898438 C 116.074219 150.898438 112.503906 149.417969 109.816406 146.730469 L 55.015625 91.917969 C 49.476562 86.371094 49.476562 77.351562 55.015625 71.808594 L 109.816406 16.992188 C 112.503906 14.304688 116.074219 12.824219 119.871094 12.824219 C 123.671875 12.824219 127.238281 14.304688 129.925781 16.992188 L 184.726562 71.808594 C 190.269531 77.351562 190.269531 86.371094 184.726562 91.917969 L 129.925781 146.730469 C 127.238281 149.417969 123.671875 150.898438 119.871094 150.898438 "/>
<path style=" stroke:none;fill-rule:nonzero;fill:rgb(100%,100%,100%);fill-opacity:1;" d="M 151.261719 54.417969 L 173.007812 76.171875 C 174.578125 77.75 175.359375 79.796875 175.363281 81.863281 C 175.359375 83.929688 174.578125 85.972656 173.007812 87.550781 L 153.070312 107.488281 L 156.304688 110.726562 L 176.242188 90.785156 C 178.699219 88.324219 179.9375 85.082031 179.9375 81.863281 C 179.9375 78.636719 178.699219 75.394531 176.242188 72.9375 L 154.492188 51.183594 L 151.261719 54.417969 "/>
<path style=" stroke:none;fill-rule:nonzero;fill:rgb(9.799194%,10.5896%,12.939453%);fill-opacity:1;" d="M 105.007812 117.652344 L 98.488281 117.652344 L 98.488281 97.972656 L 104.8125 97.972656 L 104.8125 100.503906 L 101.019531 100.503906 L 101.019531 105.925781 L 103.6875 105.925781 L 103.6875 108.457031 L 101.019531 108.457031 L 101.019531 115.121094 L 105.007812 115.121094 L 105.007812 117.652344 "/>
<path style=" stroke:none;fill-rule:nonzero;fill:rgb(9.799194%,10.5896%,12.939453%);fill-opacity:1;" d="M 109.507812 106.769531 L 111.332031 106.769531 L 111.332031 100.503906 L 109.507812 100.503906 Z M 111.640625 109.300781 L 109.507812 109.300781 L 109.507812 117.652344 L 106.976562 117.652344 L 106.976562 97.972656 L 112.171875 97.972656 C 113.132812 97.972656 113.859375 98.761719 113.859375 99.660156 L 113.859375 106.519531 C 113.859375 107.222656 113.496094 107.753906 112.988281 107.898438 C 113.75 108.066406 114.171875 108.851562 114.171875 109.554688 L 114.171875 117.652344 L 111.640625 117.652344 L 111.640625 109.300781 "/>
<path style=" stroke:none;fill-rule:nonzero;fill:rgb(9.799194%,10.5896%,12.939453%);fill-opacity:1;" d="M 118.804688 106.769531 L 120.632812 106.769531 L 120.632812 100.503906 L 118.804688 100.503906 Z M 120.945312 109.300781 L 118.804688 109.300781 L 118.804688 117.652344 L 116.28125 117.652344 L 116.28125 97.972656 L 121.476562 97.972656 C 122.429688 97.972656 123.164062 98.761719 123.164062 99.660156 L 123.164062 106.519531 C 123.164062 107.222656 122.796875 107.753906 122.289062 107.898438 C 123.046875 108.066406 123.46875 108.851562 123.46875 109.554688 L 123.46875 117.652344 L 120.945312 117.652344 L 120.945312 109.300781 "/>
<path style=" stroke:none;fill-rule:nonzero;fill:rgb(9.799194%,10.5896%,12.939453%);fill-opacity:1;" d="M 130.242188 100.503906 L 128.109375 100.503906 L 128.109375 115.121094 L 130.242188 115.121094 Z M 125.578125 99.660156 C 125.578125 98.761719 126.363281 97.972656 127.265625 97.972656 L 131.085938 97.972656 C 132.042969 97.972656 132.773438 98.761719 132.773438 99.660156 L 132.773438 115.988281 C 132.773438 116.890625 132.015625 117.652344 131.085938 117.652344 L 127.265625 117.652344 C 126.363281 117.652344 125.578125 116.890625 125.578125 115.988281 L 125.578125 99.660156 "/>
<path style=" stroke:none;fill-rule:nonzero;fill:rgb(9.799194%,10.5896%,12.939453%);fill-opacity:1;" d="M 137.550781 106.769531 L 139.378906 106.769531 L 139.378906 100.503906 L 137.550781 100.503906 Z M 139.6875 109.300781 L 137.550781 109.300781 L 137.550781 117.652344 L 135.019531 117.652344 L 135.019531 97.972656 L 140.21875 97.972656 C 141.179688 97.972656 141.90625 98.761719 141.90625 99.660156 L 141.90625 106.519531 C 141.90625 107.222656 141.542969 107.753906 141.035156 107.898438 C 141.792969 108.066406 142.214844 108.851562 142.214844 109.554688 L 142.214844 117.652344 L 139.6875 117.652344 L 139.6875 109.300781 "/>
<path style=" stroke:none;fill-rule:nonzero;fill:rgb(9.799194%,10.5896%,12.939453%);fill-opacity:1;" d="M 93.234375 69.074219 L 85.882812 81.734375 L 93.234375 81.734375 Z M 93.074219 95.042969 L 93.074219 87.195312 L 79.121094 87.195312 L 79.121094 81.082031 L 92.210938 59.121094 L 100.105469 59.121094 L 100.105469 81.734375 L 104.160156 81.734375 L 104.160156 87.195312 L 100.105469 87.195312 L 100.105469 95.042969 L 93.074219 95.042969 "/>
<path style=" stroke:none;fill-rule:nonzero;fill:rgb(9.799194%,10.5896%,12.939453%);fill-opacity:1;" d="M 122.816406 77.136719 C 122.816406 67.179688 121.140625 63.558594 117.730469 63.558594 C 114.324219 63.558594 112.59375 67.128906 112.59375 77.027344 C 112.59375 87.035156 114.324219 90.601562 117.730469 90.601562 C 121.140625 90.601562 122.816406 86.929688 122.816406 77.136719 Z M 105.292969 76.917969 C 105.292969 63.449219 109.78125 57.929688 117.515625 57.929688 C 125.25 57.929688 129.953125 63.449219 129.953125 76.8125 C 129.953125 90.171875 125.25 96.28125 117.515625 96.28125 C 109.78125 96.28125 105.292969 90.441406 105.292969 76.917969 "/>
<path style=" stroke:none;fill-rule:nonzero;fill:rgb(9.799194%,10.5896%,12.939453%);fill-opacity:1;" d="M 144.929688 69.074219 L 137.574219 81.734375 L 144.929688 81.734375 Z M 144.769531 95.042969 L 144.769531 87.195312 L 130.8125 87.195312 L 130.8125 81.082031 L 143.90625 59.121094 L 151.800781 59.121094 L 151.800781 81.734375 L 155.855469 81.734375 L 155.855469 87.195312 L 151.800781 87.195312 L 151.800781 95.042969 L 144.769531 95.042969 "/>
<path style=" stroke:none;fill-rule:nonzero;fill:rgb(82.749939%,82.348633%,82.348633%);fill-opacity:1;" d="M 357.554688 294.003906 L 372.347656 294.003906 L 372.347656 132.453125 L 357.554688 132.453125 Z M 357.554688 294.003906 "/>
<path style=" stroke:none;fill-rule:nonzero;fill:rgb(76.078796%,75.689697%,75.689697%);fill-opacity:1;" d="M 358.785156 292.773438 L 362.839844 292.773438 L 362.839844 133.683594 L 358.785156 133.683594 Z M 358.785156 292.773438 "/>
<path style=" stroke:none;fill-rule:nonzero;fill:rgb(100%,100%,100%);fill-opacity:1;" d="M 369.179688 294.003906 L 367.0625 294.003906 L 367.0625 132.453125 L 369.179688 132.453125 L 369.179688 294.003906 "/>
<path style=" stroke:none;fill-rule:nonzero;fill:rgb(9.799194%,10.5896%,12.939453%);fill-opacity:1;" d="M 372.347656 294.003906 L 372.347656 292.773438 L 358.785156 292.773438 L 358.785156 133.683594 L 371.117188 133.683594 L 371.117188 294.003906 L 372.347656 294.003906 L 372.347656 292.773438 L 372.347656 294.003906 L 373.582031 294.003906 L 373.582031 131.21875 L 356.320312 131.21875 L 356.320312 295.238281 L 373.582031 295.238281 L 373.582031 294.003906 L 372.347656 294.003906 "/>
<path style=" stroke:none;fill-rule:nonzero;fill:rgb(82.749939%,82.348633%,82.348633%);fill-opacity:1;" d="M 207.964844 294.003906 L 222.757812 294.003906 L 222.757812 132.453125 L 207.964844 132.453125 Z M 207.964844 294.003906 "/>
<path style=" stroke:none;fill-rule:nonzero;fill:rgb(76.078796%,75.689697%,75.689697%);fill-opacity:1;" d="M 209.195312 292.773438 L 213.246094 292.773438 L 213.246094 133.683594 L 209.195312 133.683594 Z M 209.195312 292.773438 "/>
<path style=" stroke:none;fill-rule:nonzero;fill:rgb(100%,100%,100%);fill-opacity:1;" d="M 219.585938 294.003906 L 217.472656 294.003906 L 217.472656 132.453125 L 219.585938 132.453125 L 219.585938 294.003906 "/>
<path style=" stroke:none;fill-rule:nonzero;fill:rgb(9.799194%,10.5896%,12.939453%);fill-opacity:1;" d="M 222.757812 294.003906 L 222.757812 292.773438 L 209.195312 292.773438 L 209.195312 133.683594 L 221.519531 133.683594 L 221.519531 294.003906 L 222.757812 294.003906 L 222.757812 292.773438 L 222.757812 294.003906 L 223.988281 294.003906 L 223.988281 131.21875 L 206.726562 131.21875 L 206.726562 295.238281 L 223.988281 295.238281 L 223.988281 294.003906 L 222.757812 294.003906 "/>
<path style=" stroke:none;fill-rule:nonzero;fill:rgb(82.749939%,82.348633%,82.348633%);fill-opacity:1;" d="M 222.757812 262.402344 L 357.523438 262.402344 L 357.523438 252.886719 L 222.757812 252.886719 Z M 222.757812 262.402344 "/>
<path style=" stroke:none;fill-rule:nonzero;fill:rgb(76.078796%,75.689697%,75.689697%);fill-opacity:1;" d="M 222.757812 256.285156 L 357.523438 256.285156 L 357.523438 252.886719 L 222.757812 252.886719 Z M 222.757812 256.285156 "/>
<path style=" stroke:none;fill-rule:nonzero;fill:rgb(100%,100%,100%);fill-opacity:1;" d="M 222.757812 260.359375 L 222.757812 259.003906 L 357.523438 259.003906 L 357.523438 260.359375 L 222.757812 260.359375 "/>
<path style=" stroke:none;fill-rule:nonzero;fill:rgb(9.799194%,10.5896%,12.939453%);fill-opacity:1;" d="M 222.757812 262.402344 L 223.988281 262.402344 L 223.988281 254.121094 L 356.292969 254.121094 L 356.292969 261.167969 L 222.757812 261.167969 L 222.757812 262.402344 L 223.988281 262.402344 L 222.757812 262.402344 L 222.757812 263.636719 L 358.757812 263.636719 L 358.757812 251.652344 L 221.523438 251.652344 L 221.523438 263.636719 L 222.757812 263.636719 L 222.757812 262.402344 "/>
<path style=" stroke:none;fill-rule:nonzero;fill:rgb(97.648621%,67.83905%,13.729858%);fill-opacity:1;" d="M 207.964844 157.425781 L 207.988281 184.671875 L 215.011719 184.664062 L 222.183594 157.414062 L 207.964844 157.425781 "/>
<path style=" stroke:none;fill-rule:nonzero;fill:rgb(9.799194%,10.5896%,12.939453%);fill-opacity:1;" d="M 207.964844 157.425781 L 206.726562 157.429688 L 206.753906 185.90625 L 215.964844 185.898438 L 223.785156 156.175781 L 206.726562 156.191406 L 206.726562 157.429688 L 207.964844 157.425781 L 207.964844 158.65625 L 220.585938 158.648438 L 214.058594 183.433594 L 209.21875 183.4375 L 209.195312 157.425781 L 207.964844 157.425781 L 207.964844 158.65625 L 207.964844 157.425781 "/>
<path style=" stroke:none;fill-rule:nonzero;fill:rgb(100%,100%,100%);fill-opacity:1;" d="M 229.40625 184.652344 L 215.011719 184.664062 L 222.183594 157.414062 L 236.582031 157.398438 L 229.40625 184.652344 "/>
<path style=" stroke:none;fill-rule:nonzero;fill:rgb(9.799194%,10.5896%,12.939453%);fill-opacity:1;" d="M 229.40625 184.652344 L 229.40625 183.417969 L 216.609375 183.429688 L 223.136719 158.648438 L 234.984375 158.632812 L 228.214844 184.339844 L 229.40625 184.652344 L 229.40625 183.417969 L 229.40625 184.652344 L 230.601562 184.96875 L 238.183594 156.164062 L 221.234375 156.179688 L 213.410156 185.898438 L 230.359375 185.886719 L 230.601562 184.96875 L 229.40625 184.652344 "/>
<path style=" stroke:none;fill-rule:nonzero;fill:rgb(97.648621%,67.83905%,13.729858%);fill-opacity:1;" d="M 243.804688 184.636719 L 229.40625 184.652344 L 236.582031 157.398438 L 250.984375 157.386719 L 243.804688 184.636719 "/>
<path style=" stroke:none;fill-rule:nonzero;fill:rgb(9.799194%,10.5896%,12.939453%);fill-opacity:1;" d="M 243.804688 184.636719 L 243.804688 183.40625 L 231.007812 183.414062 L 237.535156 158.628906 L 249.382812 158.621094 L 242.617188 184.324219 L 243.804688 184.636719 L 243.804688 183.40625 L 243.804688 184.636719 L 245 184.953125 L 252.582031 156.152344 L 235.632812 156.164062 L 227.808594 185.886719 L 244.757812 185.871094 L 245 184.953125 L 243.804688 184.636719 "/>
<path style=" stroke:none;fill-rule:nonzero;fill:rgb(100%,100%,100%);fill-opacity:1;" d="M 258.207031 184.625 L 243.804688 184.636719 L 250.984375 157.386719 L 265.382812 157.375 L 258.207031 184.625 "/>
<path style=" stroke:none;fill-rule:nonzero;fill:rgb(9.799194%,10.5896%,12.939453%);fill-opacity:1;" d="M 258.207031 184.625 L 258.207031 183.390625 L 245.40625 183.402344 L 251.933594 158.617188 L 263.78125 158.605469 L 257.015625 184.308594 L 258.207031 184.625 L 258.207031 183.390625 L 258.207031 184.625 L 259.398438 184.9375 L 266.984375 156.136719 L 250.03125 156.152344 L 242.207031 185.871094 L 259.160156 185.855469 L 259.398438 184.9375 L 258.207031 184.625 "/>
<path style=" stroke:none;fill-rule:nonzero;fill:rgb(97.648621%,67.83905%,13.729858%);fill-opacity:1;" d="M 272.609375 184.613281 L 258.207031 184.625 L 265.382812 157.375 L 279.78125 157.359375 L 272.609375 184.613281 "/>
<path style=" stroke:none;fill-rule:nonzero;fill:rgb(9.799194%,10.5896%,12.939453%);fill-opacity:1;" d="M 272.609375 184.613281 L 272.605469 183.375 L 259.804688 183.390625 L 266.332031 158.605469 L 278.179688 158.59375 L 271.414062 184.296875 L 272.609375 184.613281 L 272.605469 183.375 L 272.609375 184.613281 L 273.796875 184.925781 L 281.382812 156.125 L 264.429688 156.140625 L 256.609375 185.859375 L 273.554688 185.84375 L 273.796875 184.925781 L 272.609375 184.613281 "/>
<path style=" stroke:none;fill-rule:nonzero;fill:rgb(100%,100%,100%);fill-opacity:1;" d="M 287.003906 184.597656 L 272.609375 184.613281 L 279.78125 157.359375 L 294.179688 157.34375 L 287.003906 184.597656 "/>
<path style=" stroke:none;fill-rule:nonzero;fill:rgb(9.799194%,10.5896%,12.939453%);fill-opacity:1;" d="M 287.003906 184.597656 L 287.003906 183.367188 L 274.203125 183.375 L 280.730469 158.59375 L 292.578125 158.582031 L 285.8125 184.285156 L 287.003906 184.597656 L 287.003906 183.367188 L 287.003906 184.597656 L 288.195312 184.914062 L 295.777344 156.113281 L 278.828125 156.125 L 271.007812 185.847656 L 287.953125 185.832031 L 288.195312 184.914062 L 287.003906 184.597656 "/>
<path style=" stroke:none;fill-rule:nonzero;fill:rgb(97.648621%,67.83905%,13.729858%);fill-opacity:1;" d="M 301.40625 184.585938 L 287.003906 184.597656 L 294.179688 157.34375 L 308.578125 157.332031 L 301.40625 184.585938 "/>
<path style=" stroke:none;fill-rule:nonzero;fill:rgb(9.799194%,10.5896%,12.939453%);fill-opacity:1;" d="M 301.40625 184.585938 L 301.40625 183.351562 L 288.605469 183.363281 L 295.128906 158.578125 L 306.976562 158.566406 L 300.210938 184.269531 L 301.40625 184.585938 L 301.40625 183.351562 L 301.40625 184.585938 L 302.597656 184.898438 L 310.175781 156.097656 L 293.226562 156.113281 L 285.40625 185.832031 L 302.355469 185.816406 L 302.597656 184.898438 L 301.40625 184.585938 "/>
<path style=" stroke:none;fill-rule:nonzero;fill:rgb(100%,100%,100%);fill-opacity:1;" d="M 315.804688 184.570312 L 301.40625 184.585938 L 308.578125 157.332031 L 322.980469 157.320312 L 315.804688 184.570312 "/>
<path style=" stroke:none;fill-rule:nonzero;fill:rgb(9.799194%,10.5896%,12.939453%);fill-opacity:1;" d="M 315.804688 184.570312 L 315.804688 183.335938 L 303.007812 183.351562 L 309.527344 158.566406 L 321.378906 158.554688 L 314.609375 184.253906 L 315.804688 184.570312 L 315.804688 183.335938 L 315.804688 184.570312 L 316.996094 184.886719 L 324.578125 156.082031 L 307.628906 156.097656 L 299.804688 185.816406 L 316.753906 185.804688 L 316.996094 184.886719 L 315.804688 184.570312 "/>
<path style=" stroke:none;fill-rule:nonzero;fill:rgb(97.648621%,67.83905%,13.729858%);fill-opacity:1;" d="M 330.203125 184.554688 L 315.804688 184.570312 L 322.980469 157.320312 L 337.378906 157.304688 L 330.203125 184.554688 "/>
<path style=" stroke:none;fill-rule:nonzero;fill:rgb(9.799194%,10.5896%,12.939453%);fill-opacity:1;" d="M 330.203125 184.554688 L 330.203125 183.324219 L 317.402344 183.335938 L 323.925781 158.550781 L 335.777344 158.539062 L 329.007812 184.246094 L 330.203125 184.554688 L 330.203125 183.324219 L 330.203125 184.554688 L 331.394531 184.871094 L 338.976562 156.070312 L 322.027344 156.085938 L 314.203125 185.808594 L 331.152344 185.789062 L 331.394531 184.871094 L 330.203125 184.554688 "/>
<path style=" stroke:none;fill-rule:nonzero;fill:rgb(100%,100%,100%);fill-opacity:1;" d="M 344.601562 184.546875 L 330.203125 184.554688 L 337.378906 157.304688 L 351.773438 157.292969 L 344.601562 184.546875 "/>
<path style=" stroke:none;fill-rule:nonzero;fill:rgb(9.799194%,10.5896%,12.939453%);fill-opacity:1;" d="M 344.601562 184.546875 L 344.601562 183.3125 L 331.804688 183.324219 L 338.324219 158.539062 L 350.175781 158.527344 L 343.410156 184.230469 L 344.601562 184.546875 L 344.601562 183.3125 L 344.601562 184.546875 L 345.796875 184.859375 L 353.375 156.058594 L 336.425781 156.074219 L 328.601562 185.792969 L 345.550781 185.777344 L 345.796875 184.859375 L 344.601562 184.546875 "/>
<path style=" stroke:none;fill-rule:nonzero;fill:rgb(97.648621%,67.83905%,13.729858%);fill-opacity:1;" d="M 359 184.53125 L 344.597656 184.546875 L 351.773438 157.292969 L 366.175781 157.28125 L 359 184.53125 "/>
<path style=" stroke:none;fill-rule:nonzero;fill:rgb(9.799194%,10.5896%,12.939453%);fill-opacity:1;" d="M 359 184.53125 L 359 183.296875 L 346.199219 183.308594 L 352.722656 158.523438 L 364.574219 158.515625 L 357.804688 184.214844 L 359 184.53125 L 359 183.296875 L 359 184.53125 L 360.195312 184.84375 L 367.777344 156.042969 L 350.824219 156.0625 L 342.996094 185.777344 L 359.949219 185.765625 L 360.195312 184.84375 L 359 184.53125 "/>
<path style=" stroke:none;fill-rule:nonzero;fill:rgb(100%,100%,100%);fill-opacity:1;" d="M 372.320312 157.273438 L 366.175781 157.28125 L 359 184.53125 L 372.347656 184.519531 L 372.320312 157.273438 "/>
<path style=" stroke:none;fill-rule:nonzero;fill:rgb(9.799194%,10.5896%,12.939453%);fill-opacity:1;" d="M 372.320312 157.273438 L 372.320312 156.039062 L 365.226562 156.046875 L 357.398438 185.769531 L 373.582031 185.753906 L 373.550781 156.039062 L 372.320312 156.039062 L 372.320312 157.273438 L 371.085938 157.277344 L 371.117188 183.285156 L 360.601562 183.296875 L 367.125 158.511719 L 372.324219 158.507812 L 372.320312 157.273438 L 371.085938 157.277344 L 372.320312 157.273438 "/>
<path style=" stroke:none;fill-rule:nonzero;fill:rgb(97.648621%,67.83905%,13.729858%);fill-opacity:1;" d="M 207.90625 206.167969 L 207.933594 233.414062 L 214.957031 233.402344 L 222.132812 206.152344 L 207.90625 206.167969 "/>
<path style=" stroke:none;fill-rule:nonzero;fill:rgb(9.799194%,10.5896%,12.939453%);fill-opacity:1;" d="M 207.90625 206.167969 L 206.675781 206.167969 L 206.703125 234.648438 L 215.90625 234.636719 L 223.730469 204.917969 L 206.675781 204.933594 L 206.675781 206.167969 L 207.90625 206.167969 L 207.90625 207.402344 L 220.53125 207.386719 L 214.003906 232.171875 L 209.164062 232.179688 L 209.140625 206.164062 L 207.90625 206.167969 L 207.90625 207.402344 L 207.90625 206.167969 "/>
<path style=" stroke:none;fill-rule:nonzero;fill:rgb(100%,100%,100%);fill-opacity:1;" d="M 229.359375 233.394531 L 214.957031 233.402344 L 222.132812 206.152344 L 236.53125 206.140625 L 229.359375 233.394531 "/>
<path style=" stroke:none;fill-rule:nonzero;fill:rgb(9.799194%,10.5896%,12.939453%);fill-opacity:1;" d="M 229.359375 233.394531 L 229.359375 232.160156 L 216.554688 232.171875 L 223.082031 207.386719 L 234.933594 207.375 L 228.164062 233.078125 L 229.359375 233.394531 L 229.359375 232.160156 L 229.359375 233.394531 L 230.550781 233.703125 L 238.132812 204.90625 L 221.179688 204.921875 L 213.359375 234.640625 L 230.308594 234.621094 L 230.550781 233.703125 L 229.359375 233.394531 "/>
<path style=" stroke:none;fill-rule:nonzero;fill:rgb(97.648621%,67.83905%,13.729858%);fill-opacity:1;" d="M 243.757812 233.378906 L 229.359375 233.394531 L 236.527344 206.140625 L 250.933594 206.125 L 243.757812 233.378906 "/>
<path style=" stroke:none;fill-rule:nonzero;fill:rgb(9.799194%,10.5896%,12.939453%);fill-opacity:1;" d="M 243.757812 233.378906 L 243.753906 232.144531 L 230.957031 232.15625 L 237.476562 207.375 L 249.332031 207.363281 L 242.5625 233.066406 L 243.757812 233.378906 L 243.753906 232.144531 L 243.757812 233.378906 L 244.945312 233.695312 L 252.53125 204.890625 L 235.574219 204.90625 L 227.757812 234.625 L 244.703125 234.613281 L 244.945312 233.695312 L 243.757812 233.378906 "/>
<path style=" stroke:none;fill-rule:nonzero;fill:rgb(100%,100%,100%);fill-opacity:1;" d="M 258.15625 233.363281 L 243.757812 233.378906 L 250.933594 206.125 L 265.332031 206.113281 L 258.15625 233.363281 "/>
<path style=" stroke:none;fill-rule:nonzero;fill:rgb(9.799194%,10.5896%,12.939453%);fill-opacity:1;" d="M 258.15625 233.363281 L 258.15625 232.132812 L 245.355469 232.140625 L 251.878906 207.359375 L 263.730469 207.347656 L 256.960938 233.050781 L 258.15625 233.363281 L 258.15625 232.132812 L 258.15625 233.363281 L 259.347656 233.679688 L 266.929688 204.878906 L 249.976562 204.894531 L 242.15625 234.613281 L 259.105469 234.597656 L 259.347656 233.679688 L 258.15625 233.363281 "/>
<path style=" stroke:none;fill-rule:nonzero;fill:rgb(97.648621%,67.83905%,13.729858%);fill-opacity:1;" d="M 272.554688 233.355469 L 258.15625 233.363281 L 265.332031 206.113281 L 279.726562 206.101562 L 272.554688 233.355469 "/>
<path style=" stroke:none;fill-rule:nonzero;fill:rgb(9.799194%,10.5896%,12.939453%);fill-opacity:1;" d="M 272.554688 233.355469 L 272.554688 232.121094 L 259.757812 232.132812 L 266.277344 207.347656 L 278.128906 207.335938 L 271.359375 233.039062 L 272.554688 233.355469 L 272.554688 232.121094 L 272.554688 233.355469 L 273.746094 233.664062 L 281.328125 204.867188 L 264.378906 204.882812 L 256.554688 234.597656 L 273.503906 234.582031 L 273.746094 233.664062 L 272.554688 233.355469 "/>
<path style=" stroke:none;fill-rule:nonzero;fill:rgb(100%,100%,100%);fill-opacity:1;" d="M 286.953125 233.339844 L 272.554688 233.355469 L 279.726562 206.101562 L 294.128906 206.085938 L 286.953125 233.339844 "/>
<path style=" stroke:none;fill-rule:nonzero;fill:rgb(9.799194%,10.5896%,12.939453%);fill-opacity:1;" d="M 286.953125 233.339844 L 286.953125 232.105469 L 274.15625 232.117188 L 280.675781 207.332031 L 292.527344 207.324219 L 285.757812 233.023438 L 286.953125 233.339844 L 286.953125 232.105469 L 286.953125 233.339844 L 288.144531 233.652344 L 295.726562 204.851562 L 278.777344 204.867188 L 270.953125 234.585938 L 287.902344 234.574219 L 288.144531 233.652344 L 286.953125 233.339844 "/>
<path style=" stroke:none;fill-rule:nonzero;fill:rgb(97.648621%,67.83905%,13.729858%);fill-opacity:1;" d="M 301.351562 233.324219 L 286.953125 233.339844 L 294.128906 206.085938 L 308.527344 206.074219 L 301.351562 233.324219 "/>
<path style=" stroke:none;fill-rule:nonzero;fill:rgb(9.799194%,10.5896%,12.939453%);fill-opacity:1;" d="M 301.351562 233.324219 L 301.351562 232.09375 L 288.554688 232.101562 L 295.078125 207.320312 L 306.925781 207.308594 L 300.15625 233.011719 L 301.351562 233.324219 L 301.351562 232.09375 L 301.351562 233.324219 L 302.546875 233.640625 L 310.125 204.839844 L 293.179688 204.855469 L 285.351562 234.574219 L 302.300781 234.558594 L 302.546875 233.640625 L 301.351562 233.324219 "/>
<path style=" stroke:none;fill-rule:nonzero;fill:rgb(100%,100%,100%);fill-opacity:1;" d="M 315.75 233.316406 L 301.351562 233.324219 L 308.527344 206.074219 L 322.925781 206.058594 L 315.75 233.316406 "/>
<path style=" stroke:none;fill-rule:nonzero;fill:rgb(9.799194%,10.5896%,12.939453%);fill-opacity:1;" d="M 315.75 233.316406 L 315.75 232.082031 L 302.953125 232.09375 L 309.476562 207.304688 L 321.324219 207.292969 L 314.554688 233 L 315.75 233.316406 L 315.75 232.082031 L 315.75 233.316406 L 316.945312 233.625 L 324.523438 204.824219 L 307.574219 204.84375 L 299.75 234.558594 L 316.699219 234.542969 L 316.945312 233.625 L 315.75 233.316406 "/>
<path style=" stroke:none;fill-rule:nonzero;fill:rgb(97.648621%,67.83905%,13.729858%);fill-opacity:1;" d="M 330.148438 233.300781 L 315.75 233.316406 L 322.925781 206.058594 L 337.324219 206.046875 L 330.148438 233.300781 "/>
<path style=" stroke:none;fill-rule:nonzero;fill:rgb(9.799194%,10.5896%,12.939453%);fill-opacity:1;" d="M 330.148438 233.300781 L 330.148438 232.066406 L 317.351562 232.078125 L 323.875 207.289062 L 335.722656 207.28125 L 328.957031 232.984375 L 330.148438 233.300781 L 330.148438 232.066406 L 330.148438 233.300781 L 331.34375 233.613281 L 338.921875 204.808594 L 321.972656 204.828125 L 314.148438 234.546875 L 331.101562 234.535156 L 331.34375 233.613281 L 330.148438 233.300781 "/>
<path style=" stroke:none;fill-rule:nonzero;fill:rgb(100%,100%,100%);fill-opacity:1;" d="M 344.546875 233.285156 L 330.148438 233.300781 L 337.324219 206.046875 L 351.722656 206.03125 L 344.546875 233.285156 "/>
<path style=" stroke:none;fill-rule:nonzero;fill:rgb(9.799194%,10.5896%,12.939453%);fill-opacity:1;" d="M 344.546875 233.285156 L 344.546875 232.054688 L 331.75 232.0625 L 338.277344 207.28125 L 350.121094 207.269531 L 343.355469 232.972656 L 344.546875 233.285156 L 344.546875 232.054688 L 344.546875 233.285156 L 345.742188 233.601562 L 353.324219 204.800781 L 336.375 204.8125 L 328.546875 234.535156 L 345.5 234.519531 L 345.742188 233.601562 L 344.546875 233.285156 "/>
<path style=" stroke:none;fill-rule:nonzero;fill:rgb(97.648621%,67.83905%,13.729858%);fill-opacity:1;" d="M 358.949219 233.273438 L 344.546875 233.285156 L 351.722656 206.03125 L 366.121094 206.023438 L 358.949219 233.273438 "/>
<path style=" stroke:none;fill-rule:nonzero;fill:rgb(9.799194%,10.5896%,12.939453%);fill-opacity:1;" d="M 358.949219 233.273438 L 358.945312 232.039062 L 346.148438 232.054688 L 352.671875 207.265625 L 364.523438 207.253906 L 357.757812 232.957031 L 358.949219 233.273438 L 358.945312 232.039062 L 358.949219 233.273438 L 360.140625 233.585938 L 367.722656 204.785156 L 350.769531 204.804688 L 342.945312 234.519531 L 359.898438 234.503906 L 360.140625 233.585938 L 358.949219 233.273438 "/>
<path style=" stroke:none;fill-rule:nonzero;fill:rgb(100%,100%,100%);fill-opacity:1;" d="M 372.269531 206.015625 L 366.121094 206.023438 L 358.949219 233.273438 L 372.292969 233.261719 L 372.269531 206.015625 "/>
<path style=" stroke:none;fill-rule:nonzero;fill:rgb(9.799194%,10.5896%,12.939453%);fill-opacity:1;" d="M 372.269531 206.015625 L 372.269531 204.78125 L 365.171875 204.789062 L 357.347656 234.503906 L 373.527344 234.496094 L 373.5 204.78125 L 372.269531 204.78125 L 372.269531 206.015625 L 371.035156 206.019531 L 371.058594 232.027344 L 360.546875 232.035156 L 367.074219 207.25 L 372.269531 207.25 L 372.269531 206.015625 L 371.035156 206.019531 L 372.269531 206.015625 "/>
<path style=" stroke:none;fill-rule:nonzero;fill:rgb(82.749939%,82.348633%,82.348633%);fill-opacity:1;" d="M 229.636719 126.464844 C 229.636719 134.4375 223.171875 140.90625 215.195312 140.90625 C 207.21875 140.90625 200.753906 134.4375 200.753906 126.464844 C 200.753906 118.480469 207.21875 112.015625 215.195312 112.015625 C 223.171875 112.015625 229.636719 118.480469 229.636719 126.464844 "/>
<path style=" stroke:none;fill-rule:nonzero;fill:rgb(9.799194%,10.5896%,12.939453%);fill-opacity:1;" d="M 229.636719 126.464844 L 228.402344 126.464844 C 228.402344 130.113281 226.925781 133.410156 224.53125 135.804688 C 222.136719 138.195312 218.84375 139.671875 215.195312 139.671875 C 211.542969 139.671875 208.246094 138.195312 205.851562 135.804688 C 203.460938 133.410156 201.984375 130.113281 201.984375 126.464844 C 201.984375 122.8125 203.460938 119.511719 205.851562 117.121094 C 208.246094 114.726562 211.542969 113.25 215.195312 113.25 C 218.84375 113.25 222.136719 114.726562 224.53125 117.121094 C 226.925781 119.511719 228.402344 122.8125 228.402344 126.464844 L 230.871094 126.464844 C 230.871094 117.800781 223.851562 110.78125 215.195312 110.78125 C 206.535156 110.78125 199.519531 117.800781 199.519531 126.464844 C 199.519531 135.121094 206.535156 142.140625 215.195312 142.140625 C 223.851562 142.140625 230.871094 135.121094 230.871094 126.464844 L 229.636719 126.464844 "/>
<path style=" stroke:none;fill-rule:nonzero;fill:rgb(84.709167%,16.079712%,18.818665%);fill-opacity:1;" d="M 224.207031 126.464844 C 224.207031 131.441406 220.171875 135.476562 215.195312 135.476562 C 210.214844 135.476562 206.183594 131.441406 206.183594 126.464844 C 206.183594 121.480469 210.214844 117.445312 215.195312 117.445312 C 220.171875 117.445312 224.207031 121.480469 224.207031 126.464844 "/>
<path style=" stroke:none;fill-rule:nonzero;fill:rgb(9.799194%,10.5896%,12.939453%);fill-opacity:1;" d="M 224.207031 126.464844 L 222.972656 126.464844 C 222.972656 128.617188 222.101562 130.554688 220.695312 131.964844 C 219.28125 133.375 217.347656 134.242188 215.195312 134.242188 C 213.042969 134.242188 211.101562 133.375 209.691406 131.964844 C 208.28125 130.554688 207.414062 128.617188 207.414062 126.464844 C 207.414062 124.308594 208.28125 122.371094 209.695312 120.957031 C 211.105469 119.546875 213.042969 118.679688 215.195312 118.679688 C 217.347656 118.679688 219.28125 119.546875 220.695312 120.957031 C 222.101562 122.371094 222.972656 124.308594 222.972656 126.464844 L 225.4375 126.464844 C 225.4375 120.796875 220.855469 116.210938 215.195312 116.210938 C 209.535156 116.210938 204.949219 120.796875 204.949219 126.464844 C 204.949219 132.121094 209.535156 136.707031 215.195312 136.707031 C 220.855469 136.707031 225.4375 132.121094 225.4375 126.464844 L 224.207031 126.464844 "/>
<path style=" stroke:none;fill-rule:nonzero;fill:rgb(100%,94.898987%,0%);fill-opacity:1;" d="M 219.996094 128.308594 C 219.996094 129.925781 218.6875 131.234375 217.070312 131.234375 C 215.457031 131.234375 214.148438 129.925781 214.148438 128.308594 C 214.148438 126.691406 215.457031 125.378906 217.070312 125.378906 C 218.6875 125.378906 219.996094 126.691406 219.996094 128.308594 "/>
<path style=" stroke:none;fill-rule:nonzero;fill:rgb(100%,94.898987%,0%);fill-opacity:1;" d="M 220.171875 122.945312 C 220.171875 123.609375 219.632812 124.152344 218.964844 124.152344 C 218.300781 124.152344 217.765625 123.609375 217.765625 122.945312 C 217.765625 122.277344 218.300781 121.742188 218.964844 121.742188 C 219.632812 121.742188 220.171875 122.277344 220.171875 122.945312 "/>
<path style=" stroke:none;fill-rule:nonzero;fill:rgb(82.749939%,82.348633%,82.348633%);fill-opacity:1;" d="M 379.890625 126.464844 C 379.890625 134.4375 373.421875 140.90625 365.445312 140.90625 C 357.46875 140.90625 351.003906 134.4375 351.003906 126.464844 C 351.003906 118.480469 357.46875 112.015625 365.445312 112.015625 C 373.421875 112.015625 379.890625 118.480469 379.890625 126.464844 "/>
<path style=" stroke:none;fill-rule:nonzero;fill:rgb(9.799194%,10.5896%,12.939453%);fill-opacity:1;" d="M 379.890625 126.464844 L 378.652344 126.464844 C 378.652344 130.113281 377.175781 133.410156 374.785156 135.804688 C 372.390625 138.195312 369.097656 139.671875 365.445312 139.671875 C 361.792969 139.671875 358.5 138.195312 356.105469 135.804688 C 353.714844 133.410156 352.238281 130.113281 352.234375 126.464844 C 352.238281 122.8125 353.714844 119.511719 356.105469 117.121094 C 358.5 114.726562 361.792969 113.25 365.445312 113.25 C 369.097656 113.25 372.390625 114.726562 374.785156 117.121094 C 377.175781 119.511719 378.652344 122.8125 378.652344 126.464844 L 381.117188 126.464844 C 381.117188 117.800781 374.101562 110.78125 365.445312 110.78125 C 356.789062 110.78125 349.773438 117.800781 349.769531 126.464844 C 349.773438 135.121094 356.789062 142.140625 365.445312 142.140625 C 374.101562 142.140625 381.117188 135.121094 381.117188 126.464844 L 379.890625 126.464844 "/>
<path style=" stroke:none;fill-rule:nonzero;fill:rgb(84.709167%,16.079712%,18.818665%);fill-opacity:1;" d="M 374.457031 126.464844 C 374.457031 131.441406 370.421875 135.476562 365.445312 135.476562 C 360.464844 135.476562 356.429688 131.441406 356.429688 126.464844 C 356.429688 121.480469 360.464844 117.445312 365.445312 117.445312 C 370.421875 117.445312 374.457031 121.480469 374.457031 126.464844 "/>
<path style=" stroke:none;fill-rule:nonzero;fill:rgb(9.799194%,10.5896%,12.939453%);fill-opacity:1;" d="M 374.457031 126.464844 L 373.222656 126.464844 C 373.222656 128.617188 372.355469 130.554688 370.949219 131.960938 C 369.535156 133.375 367.59375 134.242188 365.445312 134.242188 C 363.292969 134.242188 361.355469 133.375 359.945312 131.960938 C 358.53125 130.554688 357.664062 128.617188 357.664062 126.464844 C 357.664062 124.308594 358.53125 122.371094 359.945312 120.957031 C 361.355469 119.546875 363.292969 118.679688 365.445312 118.679688 C 367.59375 118.679688 369.53125 119.546875 370.949219 120.957031 C 372.355469 122.371094 373.222656 124.308594 373.222656 126.464844 L 375.691406 126.464844 C 375.691406 120.796875 371.105469 116.210938 365.445312 116.210938 C 359.78125 116.210938 355.199219 120.796875 355.199219 126.464844 C 355.199219 132.121094 359.78125 136.707031 365.445312 136.707031 C 371.105469 136.707031 375.691406 132.121094 375.691406 126.464844 L 374.457031 126.464844 "/>
<path style=" stroke:none;fill-rule:nonzero;fill:rgb(100%,94.898987%,0%);fill-opacity:1;" d="M 370.25 128.308594 C 370.25 129.925781 368.9375 131.234375 367.324219 131.234375 C 365.707031 131.234375 364.398438 129.925781 364.398438 128.308594 C 364.398438 126.691406 365.707031 125.378906 367.324219 125.378906 C 368.9375 125.378906 370.25 126.691406 370.25 128.308594 "/>
<path style=" stroke:none;fill-rule:nonzero;fill:rgb(100%,94.898987%,0%);fill-opacity:1;" d="M 370.421875 122.945312 C 370.421875 123.609375 369.882812 124.152344 369.21875 124.152344 C 368.554688 124.152344 368.011719 123.609375 368.011719 122.945312 C 368.011719 122.277344 368.554688 121.742188 369.21875 121.742188 C 369.882812 121.742188 370.421875 122.277344 370.421875 122.945312 "/>
<path style=" stroke:none;fill-rule:nonzero;fill:rgb(11.369324%,17.649841%,25.099182%);fill-opacity:1;" d="M 206.4375 23.203125 C 204.3125 23.203125 202.1875 23.203125 200.058594 23.203125 L 200.058594 26.863281 C 202.1875 26.863281 204.308594 26.863281 206.4375 26.863281 L 206.4375 23.203125 "/>
<path style=" stroke:none;fill-rule:nonzero;fill:rgb(11.369324%,17.649841%,25.099182%);fill-opacity:1;" d="M 244.066406 23.203125 C 233.648438 23.203125 223.230469 23.203125 212.816406 23.203125 L 212.816406 26.863281 C 223.230469 26.863281 233.644531 26.863281 244.066406 26.863281 L 244.066406 23.203125 "/>
<path style=" stroke:none;fill-rule:nonzero;fill:rgb(11.369324%,17.649841%,25.099182%);fill-opacity:1;" d="M 259.214844 23.203125 C 257.53125 23.203125 255.84375 23.203125 254.160156 23.203125 L 254.160156 26.863281 C 255.84375 26.863281 257.53125 26.863281 259.214844 26.863281 L 259.214844 23.203125 "/>
<path style=" stroke:none;fill-rule:nonzero;fill:rgb(11.369324%,17.649841%,25.099182%);fill-opacity:1;" d="M 41.390625 204.324219 C 39.265625 204.324219 37.136719 204.324219 35.011719 204.324219 L 35.011719 207.984375 C 37.136719 207.984375 39.265625 207.984375 41.390625 207.984375 L 41.390625 204.324219 "/>
<path style=" stroke:none;fill-rule:nonzero;fill:rgb(11.369324%,17.649841%,25.099182%);fill-opacity:1;" d="M 79.019531 204.324219 C 68.601562 204.324219 58.183594 204.324219 47.765625 204.324219 L 47.765625 207.984375 C 58.183594 207.984375 68.601562 207.984375 79.019531 207.984375 L 79.019531 204.324219 "/>
<path style=" stroke:none;fill-rule:nonzero;fill:rgb(11.369324%,17.649841%,25.099182%);fill-opacity:1;" d="M 94.164062 204.324219 C 92.480469 204.324219 90.796875 204.324219 89.117188 204.324219 L 89.117188 207.984375 C 90.796875 207.984375 92.480469 207.984375 94.164062 207.984375 L 94.164062 204.324219 "/>
<path style=" stroke:none;fill-rule:nonzero;fill:rgb(11.369324%,17.649841%,25.099182%);fill-opacity:1;" d="M 280.089844 137.304688 L 344.1875 137.304688 L 344.1875 133.644531 L 280.089844 133.644531 Z M 280.089844 137.304688 "/>
<path style=" stroke:none;fill-rule:nonzero;fill:rgb(11.369324%,17.649841%,25.099182%);fill-opacity:1;" d="M 308.886719 93.554688 L 372.984375 93.554688 L 372.984375 89.894531 L 308.886719 89.894531 Z M 308.886719 93.554688 "/>
<path style=" stroke:none;fill-rule:nonzero;fill:rgb(11.369324%,17.649841%,25.099182%);fill-opacity:1;" d="M 152.9375 176.902344 C 167.726562 176.902344 182.519531 176.902344 197.3125 176.902344 L 197.3125 173.242188 C 182.519531 173.242188 167.726562 173.242188 152.9375 173.242188 L 152.9375 176.902344 "/>
<path style=" stroke:none;fill-rule:nonzero;fill:rgb(11.369324%,17.649841%,25.099182%);fill-opacity:1;" d="M 133.214844 176.902344 C 137.894531 176.902344 142.570312 176.902344 147.246094 176.902344 L 147.246094 173.242188 C 142.570312 173.242188 137.894531 173.242188 133.214844 173.242188 L 133.214844 176.902344 "/>
<g clip-path="url(#clip2)" clip-rule="nonzero">
<path style=" stroke:none;fill-rule:nonzero;fill:rgb(11.369324%,17.649841%,25.099182%);fill-opacity:1;" d="M 374.828125 297.675781 C 377.996094 297.6875 381.160156 297.71875 384.324219 297.769531 L 384.382812 294.109375 C 381.203125 294.0625 378.023438 294.027344 374.847656 294.015625 L 374.828125 297.675781 "/>
</g>
<g clip-path="url(#clip3)" clip-rule="nonzero">
<path style=" stroke:none;fill-rule:nonzero;fill:rgb(11.369324%,17.649841%,25.099182%);fill-opacity:1;" d="M 357.394531 297.769531 C 361.253906 297.710938 365.113281 297.675781 368.972656 297.667969 L 368.964844 294.007812 C 365.089844 294.019531 361.214844 294.054688 357.34375 294.109375 L 357.394531 297.769531 "/>
</g>
<g clip-path="url(#clip4)" clip-rule="nonzero">
<path style=" stroke:none;fill-rule:nonzero;fill:rgb(11.369324%,17.649841%,25.099182%);fill-opacity:1;" d="M 194.578125 297.722656 C 235.21875 297.683594 252.117188 297.660156 266.683594 297.660156 C 284.402344 297.660156 298.664062 297.695312 348.039062 297.769531 L 348.046875 294.109375 C 298.671875 294.035156 284.40625 294 266.683594 294 C 252.117188 294 235.214844 294.023438 194.574219 294.0625 L 194.578125 297.722656 "/>
</g>
<g clip-path="url(#clip5)" clip-rule="nonzero">
<path style=" stroke:none;fill-rule:nonzero;fill:rgb(11.369324%,17.649841%,25.099182%);fill-opacity:1;" d="M 155.671875 297.769531 C 163.753906 297.757812 171.832031 297.75 179.910156 297.742188 L 179.90625 294.082031 C 171.828125 294.085938 163.746094 294.097656 155.667969 294.109375 L 155.671875 297.769531 "/>
</g>
<path style=" stroke:none;fill-rule:nonzero;fill:rgb(0%,0%,0%);fill-opacity:1;" d="M 225.078125 60.765625 C 225.078125 62.8125 225.28125 64.269531 225.691406 65.125 C 226.097656 65.980469 226.769531 66.410156 227.707031 66.410156 C 228.617188 66.410156 229.285156 65.953125 229.722656 65.03125 C 230.15625 64.109375 230.367188 62.667969 230.367188 60.695312 C 230.367188 58.675781 230.160156 57.226562 229.746094 56.34375 C 229.335938 55.457031 228.671875 55.015625 227.753906 55.015625 C 226.800781 55.015625 226.117188 55.453125 225.703125 56.335938 C 225.285156 57.214844 225.078125 58.691406 225.078125 60.765625 Z M 223.6875 71.820312 L 223.6875 54.136719 L 225.078125 54.136719 L 225.078125 55.542969 C 225.464844 54.949219 225.886719 54.515625 226.347656 54.238281 C 226.808594 53.957031 227.335938 53.824219 227.925781 53.824219 C 229.296875 53.824219 230.296875 54.371094 230.929688 55.457031 C 231.5625 56.550781 231.875 58.292969 231.875 60.695312 C 231.875 63.046875 231.542969 64.800781 230.875 65.957031 C 230.210938 67.105469 229.199219 67.683594 227.847656 67.683594 C 227.226562 67.683594 226.695312 67.554688 226.238281 67.292969 C 225.78125 67.03125 225.394531 66.632812 225.078125 66.105469 L 225.078125 71.820312 L 223.6875 71.820312 "/>
<path style=" stroke:none;fill-rule:nonzero;fill:rgb(0%,0%,0%);fill-opacity:1;" d="M 239.527344 60.238281 C 237.507812 61.027344 236.246094 61.660156 235.761719 62.144531 C 235.273438 62.628906 235.03125 63.25 235.03125 64.015625 C 235.03125 64.753906 235.199219 65.339844 235.542969 65.765625 C 235.886719 66.195312 236.355469 66.410156 236.945312 66.410156 C 237.835938 66.410156 238.488281 66.085938 238.902344 65.445312 C 239.320312 64.804688 239.527344 63.792969 239.527344 62.414062 Z M 241.972656 67.320312 C 241.75 67.367188 241.570312 67.398438 241.417969 67.414062 C 241.273438 67.429688 241.128906 67.4375 240.992188 67.4375 C 240.640625 67.4375 240.34375 67.347656 240.109375 67.164062 C 239.871094 66.980469 239.6875 66.699219 239.550781 66.316406 C 239.179688 66.757812 238.75 67.09375 238.265625 67.320312 C 237.785156 67.546875 237.25 67.660156 236.65625 67.660156 C 235.6875 67.660156 234.933594 67.339844 234.390625 66.695312 C 233.84375 66.050781 233.570312 65.15625 233.570312 64.015625 C 233.570312 63.007812 233.8125 62.199219 234.300781 61.585938 C 234.785156 60.976562 235.628906 60.4375 236.832031 59.972656 C 237.082031 59.875 237.417969 59.757812 237.84375 59.605469 C 239 59.210938 239.574219 58.683594 239.574219 58.03125 L 239.574219 56.929688 C 239.574219 56.230469 239.421875 55.722656 239.117188 55.402344 C 238.8125 55.082031 238.320312 54.921875 237.632812 54.921875 C 236.914062 54.921875 236.363281 55.128906 235.984375 55.542969 C 235.605469 55.953125 235.40625 56.566406 235.378906 57.386719 L 234.023438 57.386719 L 234.023438 57.109375 C 234.023438 56.101562 234.355469 55.300781 235.019531 54.710938 C 235.679688 54.121094 236.570312 53.824219 237.679688 53.824219 C 238.347656 53.824219 238.898438 53.90625 239.355469 54.070312 C 239.804688 54.230469 240.167969 54.484375 240.441406 54.828125 C 240.628906 55.058594 240.761719 55.335938 240.84375 55.652344 C 240.925781 55.96875 240.964844 56.425781 240.964844 57.027344 L 240.964844 64.832031 C 240.964844 65.492188 241.023438 65.902344 241.140625 66.058594 C 241.257812 66.214844 241.488281 66.292969 241.832031 66.292969 L 241.972656 66.292969 L 241.972656 67.320312 "/>
<path style=" stroke:none;fill-rule:nonzero;fill:rgb(0%,0%,0%);fill-opacity:1;" d="M 250.417969 60.738281 C 250.417969 58.671875 250.210938 57.195312 249.792969 56.3125 C 249.375 55.429688 248.691406 54.992188 247.742188 54.992188 C 246.824219 54.992188 246.15625 55.4375 245.746094 56.328125 C 245.332031 57.222656 245.125 58.675781 245.125 60.695312 C 245.125 62.667969 245.339844 64.109375 245.769531 65.03125 C 246.199219 65.953125 246.871094 66.410156 247.792969 66.410156 C 248.722656 66.410156 249.394531 65.976562 249.804688 65.113281 C 250.214844 64.246094 250.417969 62.792969 250.417969 60.738281 Z M 250.417969 66.105469 C 250.101562 66.632812 249.714844 67.03125 249.257812 67.292969 C 248.800781 67.554688 248.261719 67.683594 247.636719 67.683594 C 246.289062 67.683594 245.28125 67.105469 244.617188 65.957031 C 243.953125 64.800781 243.617188 63.046875 243.617188 60.695312 C 243.617188 58.292969 243.929688 56.546875 244.5625 55.445312 C 245.195312 54.347656 246.199219 53.800781 247.570312 53.800781 C 248.160156 53.800781 248.683594 53.9375 249.144531 54.214844 C 249.601562 54.492188 250.027344 54.921875 250.417969 55.515625 L 250.417969 54.164062 L 251.808594 54.164062 L 251.808594 66.382812 C 251.808594 68.410156 251.488281 69.824219 250.847656 70.621094 C 250.203125 71.421875 249.101562 71.820312 247.542969 71.820312 C 246.5625 71.820312 245.746094 71.539062 245.089844 70.972656 C 244.433594 70.410156 244.078125 69.667969 244.015625 68.757812 L 245.417969 68.757812 C 245.511719 69.351562 245.765625 69.796875 246.175781 70.101562 C 246.589844 70.40625 247.152344 70.558594 247.859375 70.558594 C 248.691406 70.558594 249.328125 70.265625 249.765625 69.679688 C 250.199219 69.097656 250.417969 68.25 250.417969 67.136719 L 250.417969 66.105469 "/>
<path style=" stroke:none;fill-rule:nonzero;fill:rgb(0%,0%,0%);fill-opacity:1;" d="M 256.015625 59.421875 L 260.808594 59.421875 C 260.808594 59.359375 260.808594 59.261719 260.816406 59.128906 C 260.824219 58.996094 260.828125 58.902344 260.828125 58.847656 C 260.828125 57.632812 260.625 56.691406 260.21875 56.03125 C 259.804688 55.367188 259.226562 55.039062 258.480469 55.039062 C 257.679688 55.039062 257.070312 55.402344 256.648438 56.128906 C 256.226562 56.859375 256.015625 57.917969 256.015625 59.304688 Z M 262.195312 63.066406 C 262.109375 64.554688 261.742188 65.691406 261.097656 66.464844 C 260.453125 67.25 259.550781 67.640625 258.386719 67.640625 C 257.070312 67.640625 256.09375 67.074219 255.460938 65.949219 C 254.824219 64.820312 254.511719 63.089844 254.511719 60.738281 C 254.511719 58.386719 254.835938 56.648438 255.488281 55.515625 C 256.144531 54.386719 257.148438 53.824219 258.503906 53.824219 C 259.734375 53.824219 260.667969 54.300781 261.308594 55.261719 C 261.945312 56.21875 262.265625 57.628906 262.265625 59.488281 L 262.265625 60.601562 L 256.015625 60.601562 L 256.015625 61.335938 C 256.015625 63.027344 256.214844 64.292969 256.613281 65.128906 C 257.007812 65.964844 257.601562 66.382812 258.386719 66.382812 C 259.113281 66.382812 259.679688 66.097656 260.097656 65.519531 C 260.515625 64.945312 260.742188 64.128906 260.78125 63.066406 L 262.195312 63.066406 "/>
<path style=" stroke:none;fill-rule:nonzero;fill:rgb(0%,0%,0%);fill-opacity:1;" d="M 276.636719 67.273438 L 276.636719 58.417969 C 276.636719 57.027344 276.492188 56.125 276.207031 55.707031 C 275.917969 55.285156 275.398438 55.074219 274.652344 55.074219 C 273.957031 55.074219 273.332031 55.300781 272.773438 55.761719 C 272.207031 56.222656 271.929688 56.714844 271.929688 57.246094 L 271.929688 67.273438 L 270.492188 67.273438 L 270.492188 54.136719 L 271.789062 54.136719 L 271.789062 55.578125 C 272.226562 54.960938 272.699219 54.511719 273.21875 54.226562 C 273.738281 53.941406 274.328125 53.800781 274.988281 53.800781 C 276.0625 53.800781 276.851562 54.128906 277.339844 54.789062 C 277.828125 55.445312 278.074219 56.503906 278.074219 57.957031 L 278.074219 67.273438 L 276.636719 67.273438 "/>
<path style=" stroke:none;fill-rule:nonzero;fill:rgb(0%,0%,0%);fill-opacity:1;" d="M 282.164062 60.738281 C 282.164062 62.59375 282.394531 63.996094 282.847656 64.945312 C 283.304688 65.886719 283.980469 66.363281 284.871094 66.363281 C 285.769531 66.363281 286.449219 65.886719 286.910156 64.9375 C 287.367188 63.984375 287.597656 62.589844 287.597656 60.738281 C 287.597656 58.894531 287.367188 57.496094 286.910156 56.546875 C 286.449219 55.597656 285.769531 55.121094 284.871094 55.121094 C 283.980469 55.121094 283.304688 55.59375 282.847656 56.539062 C 282.394531 57.488281 282.164062 58.886719 282.164062 60.738281 Z M 280.65625 60.738281 C 280.65625 58.433594 281.007812 56.703125 281.714844 55.554688 C 282.421875 54.398438 283.472656 53.824219 284.871094 53.824219 C 286.277344 53.824219 287.328125 54.398438 288.027344 55.554688 C 288.734375 56.703125 289.082031 58.433594 289.082031 60.738281 C 289.082031 63.046875 288.734375 64.777344 288.035156 65.917969 C 287.339844 67.0625 286.285156 67.640625 284.871094 67.640625 C 283.457031 67.640625 282.398438 67.0625 281.703125 65.917969 C 281.007812 64.777344 280.65625 63.046875 280.65625 60.738281 "/>
<path style=" stroke:none;fill-rule:nonzero;fill:rgb(0%,0%,0%);fill-opacity:1;" d="M 297.761719 67.273438 L 297.761719 55.304688 L 296.394531 55.304688 L 296.394531 54.136719 L 297.761719 54.136719 L 297.761719 52.386719 C 297.761719 51.285156 297.945312 50.507812 298.308594 50.054688 C 298.675781 49.597656 299.292969 49.371094 300.15625 49.371094 C 300.289062 49.371094 300.5 49.378906 300.789062 49.40625 L 300.914062 49.414062 L 300.914062 50.609375 L 300.730469 50.601562 C 300.65625 50.597656 300.5625 50.597656 300.4375 50.597656 C 299.96875 50.597656 299.648438 50.71875 299.480469 50.964844 C 299.308594 51.210938 299.222656 51.78125 299.222656 52.679688 L 299.222656 54.136719 L 300.914062 54.136719 L 300.914062 55.304688 L 299.222656 55.304688 L 299.222656 67.273438 L 297.761719 67.273438 "/>
<path style=" stroke:none;fill-rule:nonzero;fill:rgb(0%,0%,0%);fill-opacity:1;" d="M 303.90625 60.738281 C 303.90625 62.59375 304.136719 63.996094 304.59375 64.945312 C 305.046875 65.886719 305.722656 66.363281 306.621094 66.363281 C 307.511719 66.363281 308.191406 65.886719 308.648438 64.9375 C 309.109375 63.984375 309.339844 62.589844 309.339844 60.738281 C 309.339844 58.894531 309.109375 57.496094 308.648438 56.546875 C 308.191406 55.597656 307.511719 55.121094 306.621094 55.121094 C 305.722656 55.121094 305.046875 55.59375 304.59375 56.539062 C 304.136719 57.488281 303.90625 58.886719 303.90625 60.738281 Z M 302.398438 60.738281 C 302.398438 58.433594 302.753906 56.703125 303.460938 55.554688 C 304.160156 54.398438 305.214844 53.824219 306.621094 53.824219 C 308.019531 53.824219 309.070312 54.398438 309.773438 55.554688 C 310.476562 56.703125 310.824219 58.433594 310.824219 60.738281 C 310.824219 63.046875 310.476562 64.777344 309.777344 65.917969 C 309.082031 67.0625 308.027344 67.640625 306.621094 67.640625 C 305.199219 67.640625 304.144531 67.0625 303.445312 65.917969 C 302.75 64.777344 302.398438 63.046875 302.398438 60.738281 "/>
<path style=" stroke:none;fill-rule:nonzero;fill:rgb(0%,0%,0%);fill-opacity:1;" d="M 314.867188 54.136719 L 314.867188 63.007812 C 314.867188 64.398438 315.011719 65.296875 315.300781 65.710938 C 315.585938 66.128906 316.109375 66.339844 316.855469 66.339844 C 317.546875 66.339844 318.171875 66.109375 318.734375 65.652344 C 319.296875 65.191406 319.578125 64.695312 319.578125 64.167969 L 319.578125 54.136719 L 321.011719 54.136719 L 321.011719 67.273438 L 319.726562 67.273438 L 319.726562 65.835938 C 319.285156 66.445312 318.800781 66.890625 318.285156 67.179688 C 317.765625 67.46875 317.175781 67.613281 316.515625 67.613281 C 315.4375 67.613281 314.65625 67.285156 314.167969 66.632812 C 313.675781 65.976562 313.429688 64.921875 313.429688 63.464844 L 313.429688 54.136719 L 314.867188 54.136719 "/>
<path style=" stroke:none;fill-rule:nonzero;fill:rgb(0%,0%,0%);fill-opacity:1;" d="M 330.175781 67.273438 L 330.175781 58.417969 C 330.175781 57.027344 330.03125 56.125 329.742188 55.707031 C 329.453125 55.285156 328.933594 55.074219 328.1875 55.074219 C 327.492188 55.074219 326.867188 55.300781 326.304688 55.761719 C 325.746094 56.222656 325.464844 56.714844 325.464844 57.246094 L 325.464844 67.273438 L 324.027344 67.273438 L 324.027344 54.136719 L 325.324219 54.136719 L 325.324219 55.578125 C 325.761719 54.960938 326.234375 54.511719 326.753906 54.226562 C 327.277344 53.941406 327.863281 53.800781 328.527344 53.800781 C 329.601562 53.800781 330.382812 54.128906 330.875 54.789062 C 331.363281 55.445312 331.609375 56.503906 331.609375 57.957031 L 331.609375 67.273438 L 330.175781 67.273438 "/>
<path style=" stroke:none;fill-rule:nonzero;fill:rgb(0%,0%,0%);fill-opacity:1;" d="M 340.992188 60.695312 C 340.992188 58.636719 340.789062 57.175781 340.378906 56.3125 C 339.96875 55.445312 339.296875 55.015625 338.363281 55.015625 C 337.441406 55.015625 336.769531 55.476562 336.34375 56.398438 C 335.914062 57.324219 335.699219 58.769531 335.699219 60.738281 C 335.699219 62.757812 335.90625 64.210938 336.320312 65.101562 C 336.730469 65.992188 337.398438 66.429688 338.316406 66.429688 C 339.265625 66.429688 339.953125 65.996094 340.367188 65.117188 C 340.785156 64.242188 340.992188 62.765625 340.992188 60.695312 Z M 342.382812 49.441406 L 342.382812 67.273438 L 340.992188 67.273438 L 340.992188 65.90625 C 340.601562 66.5 340.175781 66.933594 339.71875 67.21875 C 339.257812 67.496094 338.734375 67.640625 338.144531 67.640625 C 336.769531 67.640625 335.769531 67.089844 335.136719 65.992188 C 334.507812 64.890625 334.191406 63.140625 334.191406 60.738281 C 334.191406 58.386719 334.527344 56.636719 335.191406 55.480469 C 335.859375 54.332031 336.863281 53.753906 338.210938 53.753906 C 338.824219 53.753906 339.363281 53.882812 339.820312 54.148438 C 340.273438 54.414062 340.667969 54.816406 340.992188 55.351562 L 340.992188 49.441406 L 342.382812 49.441406 "/>
</g>
</svg>
